<svg t="1711960493331" class="icon" viewBox="0 0 1024 1024" version="1.1" xmlns="http://www.w3.org/2000/svg" p-id="4280" width="200" height="200"><path d="M864 149.333333a32 32 0 0 1 3.072 63.850667L864 213.333333H832v577.813334a74.666667 74.666667 0 0 1-70.570667 74.56l-4.096 0.106666a74.666667 74.666667 0 0 1-39.424-11.242666l-4.330666-2.901334-135.36-97.92a96 96 0 0 0-108.693334-2.602666l-4.074666 2.816-133.504 97.216a74.666667 74.666667 0 0 1-118.421334-55.125334L213.333333 790.826667V213.333333H181.333333a32 32 0 0 1-3.072-63.850666L181.333333 149.333333h682.666667zM768 224H277.333333v566.826667a10.666667 10.666667 0 0 0 0.533334 3.285333l0.64 1.557333 0.853333 1.429334a10.666667 10.666667 0 0 0 13.269333 3.328l1.642667-0.981334 133.504-97.216a160 160 0 0 1 182.784-3.904l5.162667 3.584 135.36 97.898667a10.666667 10.666667 0 0 0 16.746666-6.741333l0.170667-1.92V224z m-245.333333 101.482667a32 32 0 0 1 31.829333 28.736l0.170667 3.264v56h56a32 32 0 0 1 3.264 63.850666l-3.264 0.149334h-56.021334L554.666667 533.482667a32 32 0 0 1-63.829334 3.285333L490.666667 533.482667l-0.021334-56h-55.978666a32 32 0 0 1-3.264-63.829334l3.264-0.170666H490.666667v-56a32 32 0 0 1 32-32z" fill="#021408" p-id="4281"></path></svg>